<?xml version="1.0" standalone="no"?>
<!DOCTYPE svg PUBLIC "-//W3C//DTD SVG 20010904//EN"
 "http://www.w3.org/TR/2001/REC-SVG-20010904/DTD/svg10.dtd">
<svg version="1.0" xmlns="http://www.w3.org/2000/svg"
 width="400.000000pt" height="400.000000pt" viewBox="0 0 400.000000 400.000000"
 preserveAspectRatio="xMidYMid meet">

<g transform="translate(0.000000,400.000000) scale(0.100000,-0.100000)"
fill="#000000" stroke="none">
<path d="M0 2000 l0 -2000 2000 0 2000 0 0 2000 0 2000 -2000 0 -2000 0 0
-2000z m2081 1450 c13 -10 20 -19 15 -20 -5 0 -2 -8 7 -17 13 -15 437 -855
437 -867 0 -2 40 -86 89 -187 49 -101 107 -222 129 -269 22 -47 75 -157 117
-245 42 -88 92 -193 111 -232 l33 -73 -115 0 -115 0 -47 43 c-26 23 -74 63
-107 87 -33 24 -64 49 -70 56 -24 29 -225 171 -272 193 l-53 24 0 120 0 119
37 -7 c21 -4 51 -14 67 -22 30 -16 130 -111 182 -173 16 -20 26 -31 23 -25 -3
5 -113 223 -244 483 -132 259 -242 472 -246 472 -4 0 -13 -15 -20 -32 -7 -18
-33 -66 -57 -107 -58 -100 -434 -852 -429 -858 3 -2 19 21 37 51 65 115 156
192 248 211 l32 7 0 -120 0 -120 -72 -22 c-91 -27 -146 -55 -224 -113 -63 -46
-166 -164 -178 -204 -4 -12 -24 -37 -46 -57 -39 -35 -39 -35 -114 -30 -42 3
-88 12 -104 20 l-27 14 25 0 c17 0 21 3 13 11 -7 7 -4 17 12 33 13 13 26 42
30 64 4 23 11 40 15 37 5 -3 11 4 15 15 3 11 10 20 15 20 10 0 22 37 24 80 3
42 15 72 27 65 11 -8 32 33 25 50 -3 8 -1 17 4 20 5 3 10 -3 13 -12 7 -30 29
38 23 70 -5 25 1 32 26 28 9 -1 22 39 15 46 -3 2 1 20 9 39 8 19 12 40 8 46
-4 7 -3 8 4 4 7 -4 12 -19 12 -33 0 -37 9 -24 12 18 1 18 10 45 20 58 10 13
15 27 12 32 -3 5 2 6 10 3 12 -5 14 1 10 28 -6 33 12 81 31 87 31 11 36 15 32
33 -3 10 1 32 10 48 8 16 12 34 8 40 -3 5 -1 10 4 10 6 0 11 -12 12 -27 1 -26
2 -25 10 7 5 19 6 46 4 60 -4 17 -3 21 4 11 7 -10 14 -2 30 34 12 26 21 51 21
56 0 4 4 10 9 13 4 3 6 -7 3 -22 -3 -15 -2 -24 2 -21 3 3 7 23 10 45 2 21 7
48 11 58 6 15 5 17 -5 11 -8 -5 -11 -4 -7 2 4 6 19 9 34 7 16 -2 20 -1 11 2
-20 6 -25 24 -7 24 8 0 10 14 6 40 -4 34 -3 37 9 25 8 -7 15 -22 15 -32 2 -22
17 34 17 62 0 16 -2 15 -9 -5 -8 -23 -8 -22 -3 5 3 17 5 39 5 50 0 16 2 17 9
5 5 -8 6 -18 3 -24 -3 -5 -1 -6 5 -2 7 4 12 14 12 22 0 8 4 14 8 14 9 0 47
109 44 123 -2 5 6 11 16 14 11 2 24 14 30 26 13 27 37 119 34 129 -1 4 5 5 14
1 11 -4 15 0 13 13 -2 20 8 51 24 72 8 11 12 11 19 0 6 -9 7 -6 4 10 -3 12 -9
32 -12 45 -4 17 -3 19 5 7 9 -12 11 -13 11 -1 0 8 7 22 16 32 9 10 17 29 18
43 1 24 16 38 16 16 0 -5 7 -7 16 -3 15 6 15 8 -2 20 -10 7 -13 13 -7 13 6 0
21 -9 34 -20z m-190 -283 c-10 -9 -11 -8 -5 6 3 10 9 15 12 12 3 -3 0 -11 -7
-18z m-11 -55 c0 -5 -7 -17 -16 -28 -14 -17 -15 -17 -10 -1 3 10 6 23 6 28 0
5 5 9 10 9 6 0 10 -4 10 -8z m-99 -179 c-12 -20 -14 -14 -5 12 4 9 9 14 11 11
3 -2 0 -13 -6 -23z m-80 -166 c-10 -9 -11 -8 -5 6 3 10 9 15 12 12 3 -3 0 -11
-7 -18z m289 -429 c0 -12 16 -57 36 -99 l36 -77 47 45 c25 25 65 63 89 86 l42
41 0 -38 c0 -54 -21 -95 -84 -163 l-56 -61 0 -136 c0 -75 -3 -136 -7 -136 -4
0 -20 12 -35 27 -27 26 -28 29 -28 141 l0 115 -50 53 c-27 29 -51 61 -52 71
-1 10 -2 64 -2 121 l-1 103 33 -35 c17 -20 32 -46 32 -58z m-653 -370 c-3 -8
-6 -5 -6 6 -1 11 2 17 5 13 3 -3 4 -12 1 -19z m309 -558 c40 -37 52 -76 52
-174 1 -86 0 -90 -29 -117 l-29 -27 24 -94 c14 -51 28 -103 32 -116 6 -23 5
-23 -57 -20 l-64 3 -20 70 c-11 39 -23 72 -27 73 -5 2 -8 29 -8 61 0 51 4 61
30 86 28 27 30 34 30 101 0 79 -5 87 -57 91 l-33 2 0 -245 0 -244 -60 0 -60 0
0 291 0 291 124 -4 c117 -3 126 -5 152 -28z m424 -260 l0 -290 -60 0 -59 0 -3
87 c-3 84 -4 87 -28 93 -21 5 -25 12 -25 45 0 33 4 40 25 45 25 6 25 7 25 110
l0 105 -37 -1 c-72 -2 -68 12 -68 -249 l0 -235 -60 0 -60 0 0 249 0 249 27 32
c14 18 36 36 47 40 12 5 78 9 149 9 l127 1 0 -290z m336 248 c32 -36 34 -41
34 -112 0 -65 -3 -75 -22 -89 l-23 -15 23 -24 c20 -22 22 -35 22 -120 0 -83
-3 -99 -22 -123 -35 -44 -74 -55 -208 -55 l-120 0 0 291 0 291 141 -4 141 -3
34 -37z m184 -203 l0 -245 31 0 31 0 -4 63 -3 62 46 3 c54 3 57 -1 59 -108 3
-123 20 -110 -140 -110 l-140 0 0 290 0 290 60 0 60 0 0 -245z m474 208 c14
-91 15 -90 -69 -98 l-75 -7 0 -45 0 -45 130 7 130 7 0 -61 0 -61 -129 0 c-144
0 -141 2 -141 -82 l0 -38 179 0 178 0 7 -46 c12 -93 37 -84 -239 -84 l-245 0
0 295 0 295 134 0 133 0 7 -37z m-1961 -79 c158 -293 238 -447 233 -451 -20
-20 -68 -2 -149 57 -79 58 -87 67 -87 97 0 32 1 33 23 22 12 -6 33 -21 46 -33
17 -15 3 19 -48 117 -40 75 -69 137 -65 137 4 0 3 5 -4 12 -7 7 -12 19 -11 28
0 11 3 9 10 -5 7 -15 8 -11 4 16 -3 19 -2 38 1 42 9 9 31 -9 47 -39z m-34
-268 c-18 -20 -22 -37 -20 -67 2 -28 -1 -39 -8 -35 -6 4 -11 22 -11 40 0 19
-9 45 -22 61 l-22 28 27 -17 c25 -17 27 -17 48 3 31 28 36 19 8 -13z"/>
<path d="M1826 2975 c-3 -9 -6 -22 -5 -28 0 -7 5 -1 10 12 5 13 8 26 5 28 -2
2 -6 -3 -10 -12z"/>
<path d="M1492 2295 c0 -16 2 -22 5 -12 2 9 2 23 0 30 -3 6 -5 -1 -5 -18z"/>
<path d="M1395 2090 c-3 -5 -1 -10 4 -10 6 0 11 5 11 10 0 6 -2 10 -4 10 -3 0
-8 -4 -11 -10z"/>
<path d="M1271 1814 c0 -11 3 -14 6 -6 3 7 2 16 -1 19 -3 4 -6 -2 -5 -13z"/>
<path d="M2217 1343 c-4 -3 -7 -91 -7 -195 l0 -188 48 0 c26 0 53 5 60 12 17
17 15 113 -3 128 -11 9 -20 8 -45 -10 l-30 -21 0 65 0 65 45 33 c36 27 44 39
45 65 0 22 -6 36 -19 43 -22 11 -84 14 -94 3z"/>
</g>
</svg>
