<svg id="Layer_1" data-name="Layer 1" xmlns="http://www.w3.org/2000/svg" viewBox="0 0.59 500.94 478.04">   <defs>     <style>       .cls-1, .cls-2 {         fill: #fff;       }        .cls-2 {         stroke-width: 10px;       }        .cls-2, .cls-3 {         stroke: #fff;         stroke-miterlimit: 10;       }        .cls-3 {         fill: none;         stroke-width: 30px;       }     </style>   </defs>   <circle id="Inner_circle" data-name="Inner circle" class="cls-3" cx="253.82" cy="252.75" r="153.18"></circle>   <path id="ear_left" data-name="ear left" class="cls-2" d="M22.53,368.54c-1.96,1.14-3.72,2.16-5.95,3.46-6.63-15.28-10.16-30.67-11.21-46.55-4.38-66.23,30.77-124.98,91.27-152.22,5.49-2.47,5.69-5.71,5.61-10.52-1.28-74.87,46.1-136.66,118.44-154.55,4.41-1.09,8.94-1.72,13.44-2.57,2.87,5.36-.14,6.47-4.11,7.51-45.82,12.02-73.78,41.4-82.33,87.77-10.94,59.34,33.38,117.38,93.52,123.5,8.56,.87,6.14,5.88,6.07,10.92-12.33,3.84-21.33,11.17-23.94,24.37-.73,3.69-1.15,7.84-.2,11.38,1.45,5.4,.22,8.27-5.25,9.27-34.47-54.31-97.46-63.08-140.89-41.06-47.08,23.87-69.02,75.12-54.45,129.28Z"></path>   <path id="ear_right" data-name="ear right" class="cls-2" d="M276.85,5.8c17.42,1.85,33.54,7.26,48.8,15.13,57.65,29.72,90.14,90.81,82.44,155.2-.61,5.13,2.27,6.1,5.4,7.78,39.48,21.2,65.27,53.41,77.06,96.56,8.98,32.88,6.56,65.2-5.83,96.91q-5.94-2.03-4.16-7.95c13.8-46-3.74-94.6-43.68-121.05-47.66-31.55-111.9-20.03-145.68,26.13-.99,1.35-2.03,2.68-4.35,5.74-1.56-3.22-3.71-5.52-3.55-7.65,1.52-20.39-5.26-30.8-24.9-37.4-1.6-9.69-1.55-9.76,7.8-10.64,57.49-5.43,102.34-61.62,94.17-118.72-6.73-47.1-33.27-77.75-78.89-91.66-4.03-1.23-6.65-2.63-4.62-8.39Z"></path>   <path id="ear_bottom" data-name="ear bottom" class="cls-2" d="M462.76,414.08c-39.27,55.92-136.89,87.23-216.53,26.46-83.27,54.74-174.02,17.06-208.35-32.82,3.25-4.09,5.49-2.27,8.41,.83,50.62,53.68,136.95,43.22,172.8-21.28,15.69-28.23,17.66-58.09,6.85-88.65-.96-2.71-2.06-5.38-3.07-7.99,3.69-4.17,6.76-4.57,11.52-.81,13.42,10.6,26.63,9,43.09-4.26,5.24,1.2,4.28,4.19,2.63,7.98-22.08,50.72-5.5,106.14,40.48,135.61,41.15,26.37,95.38,20.83,131.48-13.43,3.14-2.98,6.11-7.81,10.69-1.62Z"></path>   <circle class="cls-1" cx="190.9" cy="300.95" r="7.12"></circle>   <circle class="cls-1" cx="155.67" cy="302.84" r="7.12"></circle>   <circle class="cls-1" cx="174.83" cy="331.69" r="7.12"></circle>   <circle class="cls-1" cx="341.87" cy="297.59" r="7.12"></circle>   <circle class="cls-1" cx="306.64" cy="299.48" r="7.12"></circle>   <circle class="cls-1" cx="325.8" cy="328.33" r="7.12"></circle>   <circle id="Top_right_dot" data-name="Top right dot" class="cls-1" cx="269.94" cy="168.42" r="7.12"></circle>   <circle id="top_left_dot" data-name="top left dot" class="cls-1" cx="232.7" cy="169.32" r="7.12"></circle>   <circle id="Top_bottom_dot" data-name="Top/bottom dot" class="cls-1" cx="251.86" cy="198.17" r="7.12"></circle> </svg>